HIERARCHY
ROOT Hips
{
  OFFSET 12.5924 87.7646 8.5502
  CHANNELS 6 Xposition Yposition Zposition Zrotation Xrotation Yrotation
  JOINT RightUpLeg
  {
    OFFSET -9.27424 -1.51647 -0.00177081
    CHANNELS 3 Zrotation Xrotation Yrotation
    JOINT RightLeg
    {
      OFFSET -0.0218595 -41.9179 0.0996455
      CHANNELS 3 Zrotation Xrotation Yrotation
      JOINT RightFoot
      {
        OFFSET -0.864559 -41.9626 -0.357059
        CHANNELS 3 Zrotation Xrotation Yrotation
        End Site
        {
          OFFSET 0 -7.69 17.5
        }
      }
    }
  }
  JOINT LeftUpLeg
  {
    OFFSET 9.25718 -1.5867 0.052377
    CHANNELS 3 Zrotation Xrotation Yrotation
    JOINT LeftLeg
    {
      OFFSET 0.0916619 -41.8676 0.000817906
      CHANNELS 3 Zrotation Xrotation Yrotation
      JOINT LeftFoot
      {
        OFFSET -0.467602 -41.8546 0.208385
        CHANNELS 3 Zrotation Xrotation Yrotation
        End Site
        {
          OFFSET 0 -7.69 17.5
        }
      }
    }
  }
  JOINT Spine
  {
    OFFSET 0.0181296 14.2981 0.0454815
    CHANNELS 3 Zrotation Xrotation Yrotation
    JOINT Spine1
    {
      OFFSET 0.0179205 9.71532 0.0144816
      CHANNELS 3 Zrotation Xrotation Yrotation
      JOINT Spine2
      {
        OFFSET 0.0460832 10.1118 -0.00781291
        CHANNELS 3 Zrotation Xrotation Yrotation
        JOINT Spine3
        {
          OFFSET 0.0326005 9.72657 -0.000132442
          CHANNELS 3 Zrotation Xrotation Yrotation
          JOINT Neck
          {
            OFFSET -0.0594321 10.3688 0.0892585
            CHANNELS 3 Zrotation Xrotation Yrotation
            JOINT Head
            {
              OFFSET -0.027184 9.52116 0.11923
              CHANNELS 3 Zrotation Xrotation Yrotation
              End Site
              {
                OFFSET 0 15.95 0
              }
            }
          }
          JOINT RightShoulder
          {
            OFFSET -3.18249 6.94712 0.0315742
            CHANNELS 3 Zrotation Xrotation Yrotation
            JOINT RightArm
            {
              OFFSET -12.6859 -0.0281953 -0.0223312
              CHANNELS 3 Zrotation Xrotation Yrotation
              JOINT RightForeArm
              {
                OFFSET -26.4349 -0.138904 0.103809
                CHANNELS 3 Zrotation Xrotation Yrotation
                JOINT RightHand
                {
                  OFFSET -26.0404 -0.036643 0.02476
                  CHANNELS 3 Zrotation Xrotation Yrotation
                  JOINT RightHandThumb1
                  {
                    OFFSET -2.48905 0.190105 3.12053
                    CHANNELS 3 Zrotation Xrotation Yrotation
                    JOINT RightHandThumb2
                    {
                      OFFSET -3.68274 0 0
                      CHANNELS 3 Zrotation Xrotation Yrotation
                      JOINT RightHandThumb3
                      {
                        OFFSET -2.55832 0 0
                        CHANNELS 3 Zrotation Xrotation Yrotation
                        End Site
                        {
                          OFFSET -2.194 0 0
                        }
                      }
                    }
                  }
                  JOINT RightInHandIndex
                  {
                    OFFSET -3.22368 0.508421 1.97842
                    CHANNELS 3 Zrotation Xrotation Yrotation
                    JOINT RightHandIndex1
                    {
                      OFFSET -5.21684 -0.091368 0.999158
                      CHANNELS 3 Zrotation Xrotation Yrotation
                      JOINT RightHandIndex2
                      {
                        OFFSET -3.61937 0 0
                        CHANNELS 3 Zrotation Xrotation Yrotation
                        JOINT RightHandIndex3
                        {
                          OFFSET -2.0521 0 0
                          CHANNELS 3 Zrotation Xrotation Yrotation
                          End Site
                          {
                            OFFSET -1.805 0 0
                          }
                        }
                      }
                    }
                  }
                  JOINT RightInHandMiddle
                  {
                    OFFSET -3.38211 0.517263 0.756737
                    CHANNELS 3 Zrotation Xrotation Yrotation
                    JOINT RightHandMiddle1
                    {
                      OFFSET -5.17411 -0.084 0.313895
                      CHANNELS 3 Zrotation Xrotation Yrotation
                      JOINT RightHandMiddle2
                      {
                        OFFSET -3.94947 0 0
                        CHANNELS 3 Zrotation Xrotation Yrotation
                        JOINT RightHandMiddle3
                        {
                          OFFSET -2.47579 0 0
                          CHANNELS 3 Zrotation Xrotation Yrotation
                          End Site
                          {
                            OFFSET -1.975 0 0
                          }
                        }
                      }
                    }
                  }
                  JOINT RightInHandRing
                  {
                    OFFSET -3.36516 0.537895 -0.128947
                    CHANNELS 3 Zrotation Xrotation Yrotation
                    JOINT RightHandRing1
                    {
                      OFFSET -4.63474 -0.022105 -0.478947
                      CHANNELS 3 Zrotation Xrotation Yrotation
                      JOINT RightHandRing2
                      {
                        OFFSET -3.44238 0 0
                        CHANNELS 3 Zrotation Xrotation Yrotation
                        JOINT RightHandRing3
                        {
                          OFFSET -2.3881 0 0
                          CHANNELS 3 Zrotation Xrotation Yrotation
                          End Site
                          {
                            OFFSET -1.857 0 0
                          }
                        }
                      }
                    }
                  }
                  JOINT RightInHandPinky
                  {
                    OFFSET -3.16105 0.469368 -1.20179
                    CHANNELS 3 Zrotation Xrotation Yrotation
                    JOINT RightHandPinky1
                    {
                      OFFSET -4.14105 -0.022105 -1.09053
                      CHANNELS 3 Zrotation Xrotation Yrotation
                      JOINT RightHandPinky2
                      {
                        OFFSET -2.75653 0 0
                        CHANNELS 3 Zrotation Xrotation Yrotation
                        JOINT RightHandPinky3
                        {
                          OFFSET -1.74189 0 0
                          CHANNELS 3 Zrotation Xrotation Yrotation
                          End Site
                          {
                            OFFSET -1.645 0 0
                          }
                        }
                      }
                    }
                  }
                }
              }
            }
          }
          JOINT LeftShoulder
          {
            OFFSET 3.21289 6.91298 -0.0113859
            CHANNELS 3 Zrotation Xrotation Yrotation
            JOINT LeftArm
            {
              OFFSET 12.7691 -0.0256594 -0.0399854
              CHANNELS 3 Zrotation Xrotation Yrotation
              JOINT LeftForeArm
              {
                OFFSET 26.4177 -0.0137926 -0.00219879
                CHANNELS 3 Zrotation Xrotation Yrotation
                JOINT LeftHand
                {
                  OFFSET 26.0013 -0.0633708 -0.0119906
                  CHANNELS 3 Zrotation Xrotation Yrotation
                  JOINT LeftHandThumb1
                  {
                    OFFSET 2.48905 0.190105 3.12053
                    CHANNELS 3 Zrotation Xrotation Yrotation
                    JOINT LeftHandThumb2
                    {
                      OFFSET 3.68274 0 0
                      CHANNELS 3 Zrotation Xrotation Yrotation
                      JOINT LeftHandThumb3
                      {
                        OFFSET 2.55832 0 0
                        CHANNELS 3 Zrotation Xrotation Yrotation
                        End Site
                        {
                          OFFSET 2.194 0 0
                        }
                      }
                    }
                  }
                  JOINT LeftInHandIndex
                  {
                    OFFSET 3.22368 0.508421 1.97842
                    CHANNELS 3 Zrotation Xrotation Yrotation
                    JOINT LeftHandIndex1
                    {
                      OFFSET 5.21684 -0.091368 0.999158
                      CHANNELS 3 Zrotation Xrotation Yrotation
                      JOINT LeftHandIndex2
                      {
                        OFFSET 3.61937 0 0
                        CHANNELS 3 Zrotation Xrotation Yrotation
                        JOINT LeftHandIndex3
                        {
                          OFFSET 2.0521 0 0
                          CHANNELS 3 Zrotation Xrotation Yrotation
                          End Site
                          {
                            OFFSET 1.805 0 0
                          }
                        }
                      }
                    }
                  }
                  JOINT LeftInHandMiddle
                  {
                    OFFSET 3.38211 0.517263 0.756737
                    CHANNELS 3 Zrotation Xrotation Yrotation
                    JOINT LeftHandMiddle1
                    {
                      OFFSET 5.17411 -0.084 0.313895
                      CHANNELS 3 Zrotation Xrotation Yrotation
                      JOINT LeftHandMiddle2
                      {
                        OFFSET 3.94947 0 0
                        CHANNELS 3 Zrotation Xrotation Yrotation
                        JOINT LeftHandMiddle3
                        {
                          OFFSET 2.47579 0 0
                          CHANNELS 3 Zrotation Xrotation Yrotation
                          End Site
                          {
                            OFFSET 1.975 0 0
                          }
                        }
                      }
                    }
                  }
                  JOINT LeftInHandRing
                  {
                    OFFSET 3.36516 0.537895 -0.128947
                    CHANNELS 3 Zrotation Xrotation Yrotation
                    JOINT LeftHandRing1
                    {
                      OFFSET 4.63474 -0.022105 -0.478947
                      CHANNELS 3 Zrotation Xrotation Yrotation
                      JOINT LeftHandRing2
                      {
                        OFFSET 3.44238 0 0
                        CHANNELS 3 Zrotation Xrotation Yrotation
                        JOINT LeftHandRing3
                        {
                          OFFSET 2.3881 0 0
                          CHANNELS 3 Zrotation Xrotation Yrotation
                          End Site
                          {
                            OFFSET 1.857 0 0
                          }
                        }
                      }
                    }
                  }
                  JOINT LeftInHandPinky
                  {
                    OFFSET 3.16105 0.469368 -1.20179
                    CHANNELS 3 Zrotation Xrotation Yrotation
                    JOINT LeftHandPinky1
                    {
                      OFFSET 4.14105 -0.022105 -1.09053
                      CHANNELS 3 Zrotation Xrotation Yrotation
                      JOINT LeftHandPinky2
                      {
                        OFFSET 2.75653 0 0
                        CHANNELS 3 Zrotation Xrotation Yrotation
                        JOINT LeftHandPinky3
                        {
                          OFFSET 1.74189 0 0
                          CHANNELS 3 Zrotation Xrotation Yrotation
                          End Site
                          {
                            OFFSET 1.645 0 0
                          }
                        }
                      }
                    }
                  }
                }
              }
            }
          }
        }
      }
    }
  }
}
MOTION
Frames: 3
Frame Time: 0.00833333
1.500250287301838057e+02 -4.262457225864934272e-03 2.656525458653603497e-02 3.967502403141474898e-02 2.473703800553285481e-02 1.153275494866964485e-01 -1.286325077491191904e-01 -3.648546287754610845e-02 -2.240272930238001725e-01 1.283768913250180792e-03 3.531375544387246185e-02 4.762710607710208405e-02 -4.876098401034494392e-03 -2.379735056781429395e-02 -2.225089146707377383e-02 -1.157873529764677362e-01 -8.591259025196723575e-02 -8.791940050520831440e-02 6.629922749010937200e-02 -2.177471053495722009e-02 -5.740180341561432892e-02 2.197091680757960741e-02 5.165676715376860823e-02 -3.532985133962455310e-02 3.792148279812170009e-02 -2.080994133911739236e-02 -2.264483075361070977e-03 8.118605548538822964e-03 -4.456770461360414805e-03 1.488398011940036568e-03 1.536929949400754614e-02 -6.626951245688517123e-03 1.976246176392651432e-03 -1.121763044112639119e-03 3.223011790285156344e-03 -3.325644415054949173e-03 4.989810573837621423e-03 4.927194349938941731e-03 -3.359936268412124644e-02 -3.050115706727063447e-02 4.773496650541123043e-02 -4.605709040823125627e-02 4.168638029208984047e-02 1.340008383566003783e-02 8.318313553523293269e-02 1.651210801980056431e-01 7.227319967258830080e-02 1.454681386729738679e-01 -3.476296517869588154e-01 1.007057909222808245e-01 -4.030147937744952280e-01 -4.572277201963455273e-02 -2.552935395842121369e-01 3.759103841356932763e-01 0.000000000000000000e+00 0.000000000000000000e+00 0.000000000000000000e+00 -1.600104121007889078e-14 -1.024875900759900588e-15 0.000000000000000000e+00 -1.101604263649567253e-14 3.500554148965516304e-15 0.000000000000000000e+00 -3.426368815545687744e-15 -7.880549241534693364e-15 8.298197853586650194e-15 0.000000000000000000e+00 0.000000000000000000e+00 0.000000000000000000e+00 0.000000000000000000e+00 -4.240645119601330290e-15 -3.063512177667117776e-15 0.000000000000000000e+00 3.986910305772241063e-15 1.139493856583165581e-14 -3.426368815545687744e-15 -7.880549241534693364e-15 8.298197853586650194e-15 0.000000000000000000e+00 1.834885338581278404e-15 1.323548922415937027e-14 0.000000000000000000e+00 -2.079633464376095826e-15 3.814109315677486457e-15 0.000000000000000000e+00 -2.261393773474503505e-16 6.542374796227767901e-15 -3.426368815545687744e-15 -7.880549241534693364e-15 8.298197853586650194e-15 0.000000000000000000e+00 0.000000000000000000e+00 0.000000000000000000e+00 0.000000000000000000e+00 5.603908165772657224e-15 -5.787575143555178524e-15 0.000000000000000000e+00 -2.805793770975930881e-15 -5.553052253258124879e-16 -3.426368815545687744e-15 -7.880549241534693364e-15 8.298197853586650194e-15 0.000000000000000000e+00 0.000000000000000000e+00 0.000000000000000000e+00 0.000000000000000000e+00 -9.497236843713341294e-15 6.436749182805093009e-16 0.000000000000000000e+00 -5.384803014082219210e-15 1.308918148861684674e-15 -1.847162064428724618e-02 5.366602863313663790e-02 2.358054594389266678e-02 -5.159345290489013580e-01 9.688080545504750007e-02 6.494922911343592453e-01 -3.092661126478451483e-01 1.232565038491216569e+00 -8.458328709132720835e-01 7.679710275242803696e-01 -7.798032992118917317e-01 4.489611839055923648e-01 0.000000000000000000e+00 0.000000000000000000e+00 0.000000000000000000e+00 4.985421322997131288e-15 -3.169848016698829499e-16 0.000000000000000000e+00 1.228805767837938147e-14 -7.405770189465227447e-16 0.000000000000000000e+00 2.906447226727819786e-15 6.618625778564989438e-15 -2.513698731972629952e-15 0.000000000000000000e+00 0.000000000000000000e+00 0.000000000000000000e+00 0.000000000000000000e+00 9.408558182657448667e-15 4.367475810821187328e-15 0.000000000000000000e+00 9.714042239455994383e-16 1.050210869799822760e-14 2.906447226727819786e-15 6.618625778564989438e-15 -2.513698731972629952e-15 0.000000000000000000e+00 3.165347525601297888e-15 -2.106242652993076326e-15 0.000000000000000000e+00 -8.159667423762305037e-16 -9.556127010033759186e-16 0.000000000000000000e+00 -5.135085537050927520e-15 1.146456199789239233e-14 2.906447226727819786e-15 6.618625778564989438e-15 -2.513698731972629952e-15 0.000000000000000000e+00 0.000000000000000000e+00 0.000000000000000000e+00 0.000000000000000000e+00 -2.577868513939134421e-15 -4.058573819500977735e-15 0.000000000000000000e+00 -1.471047586755420373e-15 7.136802149216186161e-15 2.906447226727819786e-15 6.618625778564989438e-15 -2.513698731972629952e-15 0.000000000000000000e+00 0.000000000000000000e+00 0.000000000000000000e+00 0.000000000000000000e+00 -7.710233649848311505e-15 3.151122214139524537e-15 0.000000000000000000e+00 -1.648034696048094031e-15 1.677585778315051168e-14
1.500084908903662608e+02 -2.039023033942873736e-03 1.182338214329504630e-02 1.158734203201633624e-02 6.882970504860496698e-03 1.832364824921157292e-02 -3.228032023665200478e-03 -1.447639214157759278e-02 -9.299413927335355157e-02 -4.380619254649875671e-02 1.956410329533600154e-02 9.912373752986208819e-02 -7.728425030770478751e-03 -8.608666441477379888e-03 -1.801448499070432835e-02 -4.137261523022154816e-03 -2.294385712473307262e-02 1.900851545328555159e-02 1.850109360216549773e-02 -2.191620092029259240e-04 -3.827455926487702970e-02 8.167977072446690884e-03 9.001593348157995930e-03 -4.171311842071142445e-03 1.837762533906047921e-02 -7.348534947621600429e-03 -8.006939321917622143e-03 4.439911500042175579e-03 -9.657991767697866750e-04 -1.008099146631682855e-03 7.724877523871100798e-03 -2.931306079682495687e-03 -1.599470958399094433e-03 -1.226115538152476852e-03 1.413892608471026746e-03 -1.586215304610870359e-03 1.399993523000950203e-04 2.546990323672068592e-03 -8.440233836279878790e-03 -2.326178365772056666e-02 2.951021500381766430e-02 -2.956684325062301083e-02 -1.819538627058261970e-03 -6.777636212969686234e-03 3.306776443282299915e-02 7.701411698724353050e-02 2.171558684735836256e-02 2.426912292761119680e-02 -1.209291259866612234e-01 3.230463621436940186e-02 -1.028957000733298766e-01 -3.390362947044960745e-02 -1.955421099200188584e-01 3.269701179499232002e-01 0.000000000000000000e+00 0.000000000000000000e+00 0.000000000000000000e+00 -2.637890841483815219e-15 -4.683675283597872784e-15 0.000000000000000000e+00 4.610573240094467378e-15 -4.537514285845205162e-15 0.000000000000000000e+00 3.487395094147021490e-16 -8.269312902503025807e-16 -8.569492744572995745e-16 0.000000000000000000e+00 0.000000000000000000e+00 0.000000000000000000e+00 0.000000000000000000e+00 1.344897780505895145e-15 4.983059481199921585e-15 0.000000000000000000e+00 2.188095938239911434e-15 1.207553240743932158e-14 3.487395094147021490e-16 -8.269312902503025807e-16 -8.569492744572995745e-16 0.000000000000000000e+00 1.208386024873112339e-15 2.898117299810986500e-15 0.000000000000000000e+00 1.829468516865075978e-16 -1.260301109885628762e-15 0.000000000000000000e+00 -9.446403616412127250e-16 -4.660797328840658471e-15 3.487395094147021490e-16 -8.269312902503025807e-16 -8.569492744572995745e-16 0.000000000000000000e+00 0.000000000000000000e+00 0.000000000000000000e+00 0.000000000000000000e+00 -2.873888179941102241e-15 1.272150341276602373e-16 0.000000000000000000e+00 1.685254939168750264e-15 4.745171776767972409e-15 3.487395094147021490e-16 -8.269312902503025807e-16 -8.569492744572995745e-16 0.000000000000000000e+00 0.000000000000000000e+00 0.000000000000000000e+00 0.000000000000000000e+00 3.038997844069411824e-15 4.891879394295381782e-15 0.000000000000000000e+00 2.028452953139994093e-15 2.986960420441809684e-15 -1.261537039918535739e-02 4.063802220190084087e-03 2.493682962192016184e-02 -1.420886490016334713e+00 5.850317899133647415e-02 1.577744544641879409e+00 1.003921106931852325e+00 2.376901423025962856e+00 3.983961364069057987e-02 1.147739491717298277e+00 -1.325626709659331270e+00 7.642737225991202976e-01 0.000000000000000000e+00 0.000000000000000000e+00 0.000000000000000000e+00 -1.461130904756423985e-15 -6.952336911049179133e-16 0.000000000000000000e+00 2.562712334147367735e-15 5.285098482170315019e-15 0.000000000000000000e+00 -5.181949845045474627e-16 5.033373099971127904e-15 8.724496587241239515e-16 0.000000000000000000e+00 0.000000000000000000e+00 0.000000000000000000e+00 0.000000000000000000e+00 4.759867925449545160e-15 5.974472096129729919e-15 0.000000000000000000e+00 4.739766674979240840e-16 3.686876460276151423e-16 -5.181949845045474627e-16 5.033373099971127904e-15 8.724496587241239515e-16 0.000000000000000000e+00 -3.895665085388755931e-15 7.397884875635127820e-15 0.000000000000000000e+00 -5.922777778468094223e-16 2.088712858840838567e-15 0.000000000000000000e+00 -3.368770548459129049e-15 7.120891857521605017e-15 -5.181949845045474627e-16 5.033373099971127904e-15 8.724496587241239515e-16 0.000000000000000000e+00 0.000000000000000000e+00 0.000000000000000000e+00 0.000000000000000000e+00 -1.119627999925483388e-15 8.776081967161732156e-15 0.000000000000000000e+00 -2.089806774736194777e-15 2.284229758316852932e-15 -5.181949845045474627e-16 5.033373099971127904e-15 8.724496587241239515e-16 0.000000000000000000e+00 0.000000000000000000e+00 0.000000000000000000e+00 0.000000000000000000e+00 -5.172366781953877374e-15 9.777725626310560680e-16 0.000000000000000000e+00 -3.074469977115016202e-15 1.104079914897890871e-14
1.499950711405606683e+02 -7.524813184822733711e-04 1.314575723885607391e-03 -1.723204065910449072e-03 1.459575589777809554e-03 -2.143839103504128346e-02 5.771860285917610606e-02 1.480782837696485027e-03 -5.418588340030015826e-02 -8.513351683407510695e-02 1.241469907998529049e-02 1.409827488776319027e-01 2.846417511899611633e-03 1.006578893591061549e-02 -7.058653692109549162e-03 2.150917337460898915e-02 8.941612091427290909e-03 2.397610612446918199e-02 -1.827609778430691438e-03 8.181206087380271316e-03 -1.078521577927668215e-02 2.360478270453618540e-04 -9.155712777396149069e-03 1.475322268481506563e-02 6.925827970483485960e-03 1.727071116318189400e-04 -5.968550161677589269e-03 2.513418293095606715e-04 -2.123950989085864418e-04 -1.060288923718355654e-03 3.057389534931080535e-03 -6.044388465052251847e-04 -1.382715894846196563e-03 -4.873342659155696947e-04 -4.332254243252017388e-04 -5.349729484184259209e-04 -1.587497018005322490e-03 5.620027881352660654e-04 4.871957894527416226e-03 -4.266607341213795451e-03 1.370461607956222419e-02 -1.694240600580269179e-02 -2.050071331912743308e-02 -7.353000439359203694e-03 -7.806204400098538249e-03 2.550172741777189875e-02 -1.583011878871423000e-02 -4.035661162524645240e-02 2.267217165657181913e-02 3.866843029946803300e-03 6.577412083781772334e-02 -1.522810288993371383e-02 -1.361589559467049348e-01 2.532950195805916405e-01 0.000000000000000000e+00 0.000000000000000000e+00 0.000000000000000000e+00 -7.561452537185679724e-16 1.081284629591136592e-15 0.000000000000000000e+00 6.748326916124215053e-16 -6.782952081340308525e-15 0.000000000000000000e+00 1.361612538169648037e-15 4.311579951405113277e-15 2.403869195521207399e-15 0.000000000000000000e+00 0.000000000000000000e+00 0.000000000000000000e+00 0.000000000000000000e+00 -2.789768611590052716e-15 -2.912973988539006876e-15 0.000000000000000000e+00 3.121474106754676196e-15 1.194375843623882098e-14 1.361612538169648037e-15 4.311579951405113277e-15 2.403869195521207399e-15 0.000000000000000000e+00 3.870798454520308660e-15 1.839148823724263267e-14 0.000000000000000000e+00 1.792984991153902431e-15 -7.363950374937262692e-15 0.000000000000000000e+00 -1.666191696043715884e-15 2.585443435133491667e-15 1.361612538169648037e-15 4.311579951405113277e-15 2.403869195521207399e-15 0.000000000000000000e+00 0.000000000000000000e+00 0.000000000000000000e+00 0.000000000000000000e+00 9.245380581724429684e-15 -2.985654192366166932e-15 0.000000000000000000e+00 1.406820688154377008e-15 1.109273784804349170e-14 1.361612538169648037e-15 4.311579951405113277e-15 2.403869195521207399e-15 0.000000000000000000e+00 0.000000000000000000e+00 0.000000000000000000e+00 0.000000000000000000e+00 -8.858003778181458755e-15 1.404930082679667763e-14 0.000000000000000000e+00 -3.205960844762003012e-15 -4.724808211146613941e-15 -1.193450223315777048e-02 2.145498956401436694e-04 9.706051069374546300e-03 -1.903384853461864479e+00 2.537202482675268156e-01 2.213547967828856322e+00 5.923752498430774338e-01 2.270996653479647076e+00 -5.607257760728534546e-01 1.081540480841528318e+00 -8.908551834769619093e-01 8.097516203768555521e-01 0.000000000000000000e+00 0.000000000000000000e+00 0.000000000000000000e+00 1.552102852940173022e-14 7.417939674792451538e-15 0.000000000000000000e+00 1.599090895855419184e-14 3.795480850478030521e-15 0.000000000000000000e+00 2.900413242972170266e-15 4.068496933157746606e-15 3.165890687586329911e-15 0.000000000000000000e+00 0.000000000000000000e+00 0.000000000000000000e+00 0.000000000000000000e+00 1.213735799537184146e-14 3.250669561967760384e-15 0.000000000000000000e+00 4.774447646847792815e-15 1.124861136973491446e-14 2.900413242972170266e-15 4.068496933157746606e-15 3.165890687586329911e-15 0.000000000000000000e+00 2.308926618025942685e-15 7.423815385478264522e-16 0.000000000000000000e+00 -3.228062240707395860e-15 1.578340252062764455e-15 0.000000000000000000e+00 -3.027623642115576459e-15 1.690014420743890012e-14 2.900413242972170266e-15 4.068496933157746606e-15 3.165890687586329911e-15 0.000000000000000000e+00 0.000000000000000000e+00 0.000000000000000000e+00 0.000000000000000000e+00 -3.059788172001497792e-15 3.025080994217360111e-15 0.000000000000000000e+00 -4.916239018966316674e-15 -3.900062218298104489e-15 2.900413242972170266e-15 4.068496933157746606e-15 3.165890687586329911e-15 0.000000000000000000e+00 0.000000000000000000e+00 0.000000000000000000e+00 0.000000000000000000e+00 2.345884973572710474e-15 5.204501406355292033e-15 0.000000000000000000e+00 -2.316492190311018962e-15 6.833268592929501393e-15
